<svg xmlns="http://www.w3.org/2000/svg" xmlns:xlink="http://www.w3.org/1999/xlink" version="1.1" width="498.53" height="210.561" viewBox="0 0 498.53 210.561">
<text xml:space="preserve" transform="matrix(1 0 -0 1 .00000023841859 210.561)" font-size="9.9626" font-family="CMSY10" font-style="italic"><tspan y="-188.106" x="3.32 7.753357 12.176751">&#x00b7;&#x00b7;&#x00b7;</tspan></text>
<path transform="matrix(1,0,0,-1,9.132,20.240998)" d="M134.45574 0C134.45574 10.95895 125.57199 19.84268 114.61304 19.84268 103.65408 19.84268 94.77036 10.95895 94.77036 0 94.77036-10.95895 103.65408-19.84268 114.61304-19.84268 125.57199-19.84268 134.45574-10.95895 134.45574 0ZM114.61304 0" fill="#ffffff"/>
<path transform="matrix(1,0,0,-1,9.132,20.240998)" stroke-width=".79701" stroke-linecap="butt" stroke-miterlimit="10" stroke-linejoin="miter" fill="none" stroke="#000000" d="M134.45574 0C134.45574 10.95895 125.57199 19.84268 114.61304 19.84268 103.65408 19.84268 94.77036 10.95895 94.77036 0 94.77036-10.95895 103.65408-19.84268 114.61304-19.84268 125.57199-19.84268 134.45574-10.95895 134.45574 0ZM114.61304 0"/>
<text xml:space="preserve" transform="matrix(1 0 -0 1 0 210.561)" font-size="9.9626" font-family="CMMI10" font-style="italic"><tspan y="-185.897" x="109.063">Z</tspan></text>
<text xml:space="preserve" transform="matrix(1 0 -0 1 0 210.561)" font-size="6.9738" font-family="CMR7"><tspan y="-189.51201" x="116.577">(</tspan></text>
<text xml:space="preserve" transform="matrix(1 0 -0 1 0 210.561)" font-size="6.9738" font-family="CMMI7" font-style="italic"><tspan y="-189.51201" x="119.69">n</tspan></text>
<text xml:space="preserve" transform="matrix(1 0 -0 1 0 210.561)" font-size="6.9738" font-family="CMSY7" font-style="italic"><tspan y="-189.51201" x="124.615009">&#x2212;</tspan></text>
<text xml:space="preserve" transform="matrix(1 0 -0 1 0 210.561)" font-size="6.9738" font-family="CMR7"><tspan y="-189.51201" x="130.841 134.81607">2)</tspan></text>
<path transform="matrix(1,0,0,-1,9.132,20.240998)" d="M134.45574-85.04045C134.45574-74.0815 125.57199-65.19777 114.61304-65.19777 103.65408-65.19777 94.77036-74.0815 94.77036-85.04045 94.77036-95.9994 103.65408-104.88313 114.61304-104.88313 125.57199-104.88313 134.45574-95.9994 134.45574-85.04045ZM114.61304-85.04045" fill="#ffffff"/>
<path transform="matrix(1,0,0,-1,9.132,20.240998)" stroke-width=".79701" stroke-linecap="butt" stroke-miterlimit="10" stroke-linejoin="miter" fill="none" stroke="#000000" d="M134.45574-85.04045C134.45574-74.0815 125.57199-65.19777 114.61304-65.19777 103.65408-65.19777 94.77036-74.0815 94.77036-85.04045 94.77036-95.9994 103.65408-104.88313 114.61304-104.88313 125.57199-104.88313 134.45574-95.9994 134.45574-85.04045ZM114.61304-85.04045"/>
<text xml:space="preserve" transform="matrix(1 0 -0 1 0 210.561)" font-size="9.9626" font-family="CMMI10" font-style="italic"><tspan y="-100.857" x="108.821">Y</tspan></text>
<text xml:space="preserve" transform="matrix(1 0 -0 1 0 210.561)" font-size="6.9738" font-family="CMR7"><tspan y="-104.473" x="116.819">(</tspan></text>
<text xml:space="preserve" transform="matrix(1 0 -0 1 0 210.561)" font-size="6.9738" font-family="CMMI7" font-style="italic"><tspan y="-104.473" x="119.932">n</tspan></text>
<text xml:space="preserve" transform="matrix(1 0 -0 1 0 210.561)" font-size="6.9738" font-family="CMSY7" font-style="italic"><tspan y="-104.473" x="124.857">&#x2212;</tspan></text>
<text xml:space="preserve" transform="matrix(1 0 -0 1 0 210.561)" font-size="6.9738" font-family="CMR7"><tspan y="-104.473" x="131.084 135.05907">2)</tspan></text>
<path transform="matrix(1,0,0,-1,9.132,20.240998)" d="M134.45574-170.08092C134.45574-159.12197 125.57199-150.23822 114.61304-150.23822 103.65408-150.23822 94.77036-159.12197 94.77036-170.08092 94.77036-181.03987 103.65408-189.9236 114.61304-189.9236 125.57199-189.9236 134.45574-181.03987 134.45574-170.08092ZM114.61304-170.08092" fill="#ffffff"/>
<path transform="matrix(1,0,0,-1,9.132,20.240998)" stroke-width=".79701" stroke-linecap="butt" stroke-miterlimit="10" stroke-linejoin="miter" fill="none" stroke="#000000" d="M134.45574-170.08092C134.45574-159.12197 125.57199-150.23822 114.61304-150.23822 103.65408-150.23822 94.77036-159.12197 94.77036-170.08092 94.77036-181.03987 103.65408-189.9236 114.61304-189.9236 125.57199-189.9236 134.45574-181.03987 134.45574-170.08092ZM114.61304-170.08092"/>
<text xml:space="preserve" transform="matrix(1 0 -0 1 -.0000076293949 210.56099)" font-size="9.9626" font-family="CMMI10" font-style="italic"><tspan y="-15.818" x="108.999">R</tspan></text>
<text xml:space="preserve" transform="matrix(1 0 -0 1 -.0000076293949 210.56099)" font-size="6.9738" font-family="CMR7"><tspan y="-19.433" x="116.641">(</tspan></text>
<text xml:space="preserve" transform="matrix(1 0 -0 1 -.0000076293949 210.56099)" font-size="6.9738" font-family="CMMI7" font-style="italic"><tspan y="-19.433" x="119.754">n</tspan></text>
<text xml:space="preserve" transform="matrix(1 0 -0 1 -.0000076293949 210.56099)" font-size="6.9738" font-family="CMSY7" font-style="italic"><tspan y="-19.433" x="124.679">&#x2212;</tspan></text>
<text xml:space="preserve" transform="matrix(1 0 -0 1 -.0000076293949 210.56099)" font-size="6.9738" font-family="CMR7"><tspan y="-19.433" x="130.905 134.88007">2)</tspan></text>
<path transform="matrix(1,0,0,-1,9.132,20.240998)" d="M259.97859 0C259.97859 10.95895 251.09484 19.84268 240.13588 19.84268 229.17693 19.84268 220.2932 10.95895 220.2932 0 220.2932-10.95895 229.17693-19.84268 240.13588-19.84268 251.09484-19.84268 259.97859-10.95895 259.97859 0ZM240.13588 0" fill="#ffffff"/>
<path transform="matrix(1,0,0,-1,9.132,20.240998)" stroke-width=".79701" stroke-linecap="butt" stroke-miterlimit="10" stroke-linejoin="miter" fill="none" stroke="#000000" d="M259.97859 0C259.97859 10.95895 251.09484 19.84268 240.13588 19.84268 229.17693 19.84268 220.2932 10.95895 220.2932 0 220.2932-10.95895 229.17693-19.84268 240.13588-19.84268 251.09484-19.84268 259.97859-10.95895 259.97859 0ZM240.13588 0"/>
<text xml:space="preserve" transform="matrix(1 0 -0 1 0 210.561)" font-size="9.9626" font-family="CMMI10" font-style="italic"><tspan y="-185.897" x="234.584">Z</tspan></text>
<text xml:space="preserve" transform="matrix(1 0 -0 1 0 210.561)" font-size="6.9738" font-family="CMR7"><tspan y="-189.51201" x="242.09799">(</tspan></text>
<text xml:space="preserve" transform="matrix(1 0 -0 1 0 210.561)" font-size="6.9738" font-family="CMMI7" font-style="italic"><tspan y="-189.51201" x="245.211">n</tspan></text>
<text xml:space="preserve" transform="matrix(1 0 -0 1 0 210.561)" font-size="6.9738" font-family="CMSY7" font-style="italic"><tspan y="-189.51201" x="250.136">&#x2212;</tspan></text>
<text xml:space="preserve" transform="matrix(1 0 -0 1 0 210.561)" font-size="6.9738" font-family="CMR7"><tspan y="-189.51201" x="256.363 260.33808">1)</tspan></text>
<path transform="matrix(1,0,0,-1,9.132,20.240998)" d="M259.97859-85.04045C259.97859-74.0815 251.09484-65.19777 240.13588-65.19777 229.17693-65.19777 220.2932-74.0815 220.2932-85.04045 220.2932-95.9994 229.17693-104.88313 240.13588-104.88313 251.09484-104.88313 259.97859-95.9994 259.97859-85.04045ZM240.13588-85.04045" fill="#ffffff"/>
<path transform="matrix(1,0,0,-1,9.132,20.240998)" stroke-width=".79701" stroke-linecap="butt" stroke-miterlimit="10" stroke-linejoin="miter" fill="none" stroke="#000000" d="M259.97859-85.04045C259.97859-74.0815 251.09484-65.19777 240.13588-65.19777 229.17693-65.19777 220.2932-74.0815 220.2932-85.04045 220.2932-95.9994 229.17693-104.88313 240.13588-104.88313 251.09484-104.88313 259.97859-95.9994 259.97859-85.04045ZM240.13588-85.04045"/>
<text xml:space="preserve" transform="matrix(1 0 -0 1 .000015258789 210.561)" font-size="9.9626" font-family="CMMI10" font-style="italic"><tspan y="-100.857" x="234.342">Y</tspan></text>
<text xml:space="preserve" transform="matrix(1 0 -0 1 .000015258789 210.561)" font-size="6.9738" font-family="CMR7"><tspan y="-104.473" x="242.34">(</tspan></text>
<text xml:space="preserve" transform="matrix(1 0 -0 1 .000015258789 210.561)" font-size="6.9738" font-family="CMMI7" font-style="italic"><tspan y="-104.473" x="245.453">n</tspan></text>
<text xml:space="preserve" transform="matrix(1 0 -0 1 .000015258789 210.561)" font-size="6.9738" font-family="CMSY7" font-style="italic"><tspan y="-104.473" x="250.378">&#x2212;</tspan></text>
<text xml:space="preserve" transform="matrix(1 0 -0 1 .000015258789 210.561)" font-size="6.9738" font-family="CMR7"><tspan y="-104.473" x="256.605 260.58009">1)</tspan></text>
<path transform="matrix(1,0,0,-1,9.132,20.240998)" d="M259.97859-170.08092C259.97859-159.12197 251.09484-150.23822 240.13588-150.23822 229.17693-150.23822 220.2932-159.12197 220.2932-170.08092 220.2932-181.03987 229.17693-189.9236 240.13588-189.9236 251.09484-189.9236 259.97859-181.03987 259.97859-170.08092ZM240.13588-170.08092" fill="#ffffff"/>
<path transform="matrix(1,0,0,-1,9.132,20.240998)" stroke-width=".79701" stroke-linecap="butt" stroke-miterlimit="10" stroke-linejoin="miter" fill="none" stroke="#000000" d="M259.97859-170.08092C259.97859-159.12197 251.09484-150.23822 240.13588-150.23822 229.17693-150.23822 220.2932-159.12197 220.2932-170.08092 220.2932-181.03987 229.17693-189.9236 240.13588-189.9236 251.09484-189.9236 259.97859-181.03987 259.97859-170.08092ZM240.13588-170.08092"/>
<text xml:space="preserve" transform="matrix(1 0 -0 1 0 210.56099)" font-size="9.9626" font-family="CMMI10" font-style="italic"><tspan y="-15.818" x="234.52">R</tspan></text>
<text xml:space="preserve" transform="matrix(1 0 -0 1 0 210.56099)" font-size="6.9738" font-family="CMR7"><tspan y="-19.433" x="242.162">(</tspan></text>
<text xml:space="preserve" transform="matrix(1 0 -0 1 0 210.56099)" font-size="6.9738" font-family="CMMI7" font-style="italic"><tspan y="-19.433" x="245.27501">n</tspan></text>
<text xml:space="preserve" transform="matrix(1 0 -0 1 0 210.56099)" font-size="6.9738" font-family="CMSY7" font-style="italic"><tspan y="-19.433" x="250.20001">&#x2212;</tspan></text>
<text xml:space="preserve" transform="matrix(1 0 -0 1 0 210.56099)" font-size="6.9738" font-family="CMR7"><tspan y="-19.433" x="256.427 260.40208">1)</tspan></text>
<path transform="matrix(1,0,0,-1,9.132,20.240998)" d="M385.50144 0C385.50144 10.95895 376.61769 19.84268 365.65873 19.84268 354.69978 19.84268 345.81605 10.95895 345.81605 0 345.81605-10.95895 354.69978-19.84268 365.65873-19.84268 376.61769-19.84268 385.50144-10.95895 385.50144 0ZM365.65873 0" fill="#ffffff"/>
<path transform="matrix(1,0,0,-1,9.132,20.240998)" stroke-width=".79701" stroke-linecap="butt" stroke-miterlimit="10" stroke-linejoin="miter" fill="none" stroke="#000000" d="M385.50144 0C385.50144 10.95895 376.61769 19.84268 365.65873 19.84268 354.69978 19.84268 345.81605 10.95895 345.81605 0 345.81605-10.95895 354.69978-19.84268 365.65873-19.84268 376.61769-19.84268 385.50144-10.95895 385.50144 0ZM365.65873 0"/>
<text xml:space="preserve" transform="matrix(1 0 -0 1 -.000030517579 210.561)" font-size="9.9626" font-family="CMMI10" font-style="italic"><tspan y="-185.897" x="365.204">Z</tspan></text>
<text xml:space="preserve" transform="matrix(1 0 -0 1 -.000030517579 210.561)" font-size="6.9738" font-family="CMR7"><tspan y="-189.51201" x="372.71803">(</tspan></text>
<text xml:space="preserve" transform="matrix(1 0 -0 1 -.000030517579 210.561)" font-size="6.9738" font-family="CMMI7" font-style="italic"><tspan y="-189.51201" x="375.83103">n</tspan></text>
<text xml:space="preserve" transform="matrix(1 0 -0 1 -.000030517579 210.561)" font-size="6.9738" font-family="CMR7"><tspan y="-189.51201" x="380.756">)</tspan></text>
<path transform="matrix(1,0,0,-1,9.132,20.240998)" d="M385.50144-85.04045C385.50144-74.0815 376.61769-65.19777 365.65873-65.19777 354.69978-65.19777 345.81605-74.0815 345.81605-85.04045 345.81605-95.9994 354.69978-104.88313 365.65873-104.88313 376.61769-104.88313 385.50144-95.9994 385.50144-85.04045ZM365.65873-85.04045" fill="#ffffff"/>
<path transform="matrix(1,0,0,-1,9.132,20.240998)" stroke-width=".79701" stroke-linecap="butt" stroke-miterlimit="10" stroke-linejoin="miter" fill="none" stroke="#000000" d="M385.50144-85.04045C385.50144-74.0815 376.61769-65.19777 365.65873-65.19777 354.69978-65.19777 345.81605-74.0815 345.81605-85.04045 345.81605-95.9994 354.69978-104.88313 365.65873-104.88313 376.61769-104.88313 385.50144-95.9994 385.50144-85.04045ZM365.65873-85.04045"/>
<text xml:space="preserve" transform="matrix(1 0 -0 1 -.000030517579 210.561)" font-size="9.9626" font-family="CMMI10" font-style="italic"><tspan y="-100.857" x="364.962">Y</tspan></text>
<text xml:space="preserve" transform="matrix(1 0 -0 1 -.000030517579 210.561)" font-size="6.9738" font-family="CMR7"><tspan y="-104.473" x="372.96">(</tspan></text>
<text xml:space="preserve" transform="matrix(1 0 -0 1 -.000030517579 210.561)" font-size="6.9738" font-family="CMMI7" font-style="italic"><tspan y="-104.473" x="376.073">n</tspan></text>
<text xml:space="preserve" transform="matrix(1 0 -0 1 -.000030517579 210.561)" font-size="6.9738" font-family="CMR7"><tspan y="-104.473" x="380.998">)</tspan></text>
<path transform="matrix(1,0,0,-1,9.132,20.240998)" d="M385.50144-170.08092C385.50144-159.12197 376.61769-150.23822 365.65873-150.23822 354.69978-150.23822 345.81605-159.12197 345.81605-170.08092 345.81605-181.03987 354.69978-189.9236 365.65873-189.9236 376.61769-189.9236 385.50144-181.03987 385.50144-170.08092ZM365.65873-170.08092" fill="#ffffff"/>
<path transform="matrix(1,0,0,-1,9.132,20.240998)" stroke-width=".79701" stroke-linecap="butt" stroke-miterlimit="10" stroke-linejoin="miter" fill="none" stroke="#000000" d="M385.50144-170.08092C385.50144-159.12197 376.61769-150.23822 365.65873-150.23822 354.69978-150.23822 345.81605-159.12197 345.81605-170.08092 345.81605-181.03987 354.69978-189.9236 365.65873-189.9236 376.61769-189.9236 385.50144-181.03987 385.50144-170.08092ZM365.65873-170.08092"/>
<text xml:space="preserve" transform="matrix(1 0 -0 1 -.000030517579 210.56099)" font-size="9.9626" font-family="CMMI10" font-style="italic"><tspan y="-15.818" x="365.14">R</tspan></text>
<text xml:space="preserve" transform="matrix(1 0 -0 1 -.000030517579 210.56099)" font-size="6.9738" font-family="CMR7"><tspan y="-19.433" x="372.782">(</tspan></text>
<text xml:space="preserve" transform="matrix(1 0 -0 1 -.000030517579 210.56099)" font-size="6.9738" font-family="CMMI7" font-style="italic"><tspan y="-19.433" x="375.89503">n</tspan></text>
<text xml:space="preserve" transform="matrix(1 0 -0 1 -.000030517579 210.56099)" font-size="6.9738" font-family="CMR7"><tspan y="-19.433" x="380.82">)</tspan></text>
<text xml:space="preserve" transform="matrix(1 0 -0 1 0 210.561)" font-size="9.9626" font-family="CMSY10" font-style="italic"><tspan y="-188.106" x="483.586 488.01936 492.44273">&#x00b7;&#x00b7;&#x00b7;</tspan></text>
<path transform="matrix(1,0,0,-1,9.132,20.240998)" stroke-width=".3985" stroke-linecap="butt" stroke-miterlimit="10" stroke-linejoin="miter" fill="none" stroke="#000000" d=""/>
<path transform="matrix(1,0,0,-1,9.132,20.240998)" stroke-width=".3985" stroke-linecap="butt" stroke-miterlimit="10" stroke-linejoin="miter" fill="none" stroke="#000000" d="M9.33139 0H89.78903"/>
<path transform="matrix(1,0,0,-1,98.921039,20.240998)" d="M3.58653 0C2.52383 .19925 .797 .797-.3985 1.49438V-1.49438C.797-.797 2.52383-.19925 3.58653 0"/>
<text xml:space="preserve" transform="matrix(1 0 -0 1 0 210.561)" font-size="9.9626" font-family="CMMI10" font-style="italic"><tspan y="-179.992" x="50.192">Q</tspan></text>
<text xml:space="preserve" transform="matrix(1 0 -0 1 0 210.561)" font-size="6.9738" font-family="CMMI7" font-style="italic"><tspan y="-178.498" x="58.068">t</tspan></text>
<text xml:space="preserve" transform="matrix(1 0 -0 1 0 210.561)" font-size="6.9738" font-family="CMSY7" font-style="italic"><tspan y="-178.498" x="61.078">&#x2212;</tspan></text>
<text xml:space="preserve" transform="matrix(1 0 -0 1 0 210.561)" font-size="6.9738" font-family="CMR7"><tspan y="-178.498" x="67.304">3</tspan></text>
<path transform="matrix(1,0,0,-1,9.132,20.240998)" stroke-width=".3985" stroke-linecap="butt" stroke-miterlimit="10" stroke-linejoin="miter" fill="none" stroke="#000000" d="M134.85424 0H215.31188"/>
<path transform="matrix(1,0,0,-1,224.44388,20.240998)" d="M3.58653 0C2.52383 .19925 .797 .797-.3985 1.49438V-1.49438C.797-.797 2.52383-.19925 3.58653 0"/>
<text xml:space="preserve" transform="matrix(1 0 -0 1 0 210.561)" font-size="9.9626" font-family="CMMI10" font-style="italic"><tspan y="-179.992" x="175.713">Q</tspan></text>
<text xml:space="preserve" transform="matrix(1 0 -0 1 0 210.561)" font-size="6.9738" font-family="CMMI7" font-style="italic"><tspan y="-178.498" x="183.589">t</tspan></text>
<text xml:space="preserve" transform="matrix(1 0 -0 1 0 210.561)" font-size="6.9738" font-family="CMSY7" font-style="italic"><tspan y="-178.498" x="186.599">&#x2212;</tspan></text>
<text xml:space="preserve" transform="matrix(1 0 -0 1 0 210.561)" font-size="6.9738" font-family="CMR7"><tspan y="-178.498" x="192.826">2</tspan></text>
<path transform="matrix(1,0,0,-1,9.132,20.240998)" stroke-width=".3985" stroke-linecap="butt" stroke-miterlimit="10" stroke-linejoin="miter" fill="none" stroke="#000000" d="M260.37709 0H340.83473"/>
<path transform="matrix(1,0,0,-1,349.9667,20.240998)" d="M3.58653 0C2.52383 .19925 .797 .797-.3985 1.49438V-1.49438C.797-.797 2.52383-.19925 3.58653 0"/>
<text xml:space="preserve" transform="matrix(1 0 -0 1 0 210.561)" font-size="9.9626" font-family="CMMI10" font-style="italic"><tspan y="-179.992" x="301.235">Q</tspan></text>
<text xml:space="preserve" transform="matrix(1 0 -0 1 0 210.561)" font-size="6.9738" font-family="CMMI7" font-style="italic"><tspan y="-178.498" x="309.111">t</tspan></text>
<text xml:space="preserve" transform="matrix(1 0 -0 1 0 210.561)" font-size="6.9738" font-family="CMSY7" font-style="italic"><tspan y="-178.498" x="312.12">&#x2212;</tspan></text>
<text xml:space="preserve" transform="matrix(1 0 -0 1 0 210.561)" font-size="6.9738" font-family="CMR7"><tspan y="-178.498" x="318.347">2</tspan></text>
<path transform="matrix(1,0,0,-1,9.132,20.240998)" stroke-width=".3985" stroke-linecap="butt" stroke-miterlimit="10" stroke-linejoin="miter" fill="none" stroke="#000000" d="M385.89994 0H466.35758"/>
<path transform="matrix(1,0,0,-1,475.48957,20.240998)" d="M3.58653 0C2.52383 .19925 .797 .797-.3985 1.49438V-1.49438C.797-.797 2.52383-.19925 3.58653 0"/>
<text xml:space="preserve" transform="matrix(1 0 -0 1 -.000030517579 210.561)" font-size="9.9626" font-family="CMMI10" font-style="italic"><tspan y="-179.992" x="431.855">Q</tspan></text>
<text xml:space="preserve" transform="matrix(1 0 -0 1 -.000030517579 210.561)" font-size="6.9738" font-family="CMMI7" font-style="italic"><tspan y="-178.498" x="439.73103">t</tspan></text>
<path transform="matrix(1,0,0,-1,9.132,20.240998)" stroke-width=".3985" stroke-linecap="butt" stroke-miterlimit="10" stroke-linejoin="miter" fill="none" stroke="#000000" d="M114.61304-20.24118V-60.21645"/>
<path transform="matrix(0,1,1,0,123.74504,80.45744)" d="M3.58653 0C2.52383 .19925 .797 .797-.3985 1.49438V-1.49438C.797-.797 2.52383-.19925 3.58653 0"/>
<text xml:space="preserve" transform="matrix(1 0 -0 1 0 210.561)" font-size="9.9626" font-family="CMMI10" font-style="italic"><tspan y="-145.766" x="87.84">f</tspan></text>
<text xml:space="preserve" transform="matrix(1 0 -0 1 0 210.561)" font-size="6.9738" font-family="CMMI7" font-style="italic"><tspan y="-144.272" x="92.717998 97.11847 99.48259">k,t</tspan></text>
<text xml:space="preserve" transform="matrix(1 0 -0 1 0 210.561)" font-size="6.9738" font-family="CMSY7" font-style="italic"><tspan y="-144.272" x="102.496997">&#x2212;</tspan></text>
<text xml:space="preserve" transform="matrix(1 0 -0 1 0 210.561)" font-size="6.9738" font-family="CMR7"><tspan y="-144.272" x="108.72399">2</tspan></text>
<text xml:space="preserve" transform="matrix(1 0 -0 1 0 210.561)" font-size="6.9738" font-family="CMMI7" font-style="italic"><tspan y="-144.272" x="112.69499 115.05911">,h</tspan></text>
<path transform="matrix(1,0,0,-1,9.132,20.240998)" stroke-width=".3985" stroke-linecap="butt" stroke-miterlimit="10" stroke-linejoin="miter" fill="none" stroke="#000000" d="M240.13588-20.24118V-60.21645"/>
<path transform="matrix(0,1,1,0,249.26789,80.45744)" d="M3.58653 0C2.52383 .19925 .797 .797-.3985 1.49438V-1.49438C.797-.797 2.52383-.19925 3.58653 0"/>
<text xml:space="preserve" transform="matrix(1 0 -0 1 0 210.561)" font-size="9.9626" font-family="CMMI10" font-style="italic"><tspan y="-145.766" x="213.362">f</tspan></text>
<text xml:space="preserve" transform="matrix(1 0 -0 1 0 210.561)" font-size="6.9738" font-family="CMMI7" font-style="italic"><tspan y="-144.272" x="218.239 222.63947 225.00359">k,t</tspan></text>
<text xml:space="preserve" transform="matrix(1 0 -0 1 0 210.561)" font-size="6.9738" font-family="CMSY7" font-style="italic"><tspan y="-144.272" x="228.019">&#x2212;</tspan></text>
<text xml:space="preserve" transform="matrix(1 0 -0 1 0 210.561)" font-size="6.9738" font-family="CMR7"><tspan y="-144.272" x="234.245">1</tspan></text>
<text xml:space="preserve" transform="matrix(1 0 -0 1 0 210.561)" font-size="6.9738" font-family="CMMI7" font-style="italic"><tspan y="-144.272" x="238.217 240.58112">,h</tspan></text>
<path transform="matrix(1,0,0,-1,9.132,20.240998)" stroke-width=".3985" stroke-linecap="butt" stroke-miterlimit="10" stroke-linejoin="miter" fill="none" stroke="#000000" d="M365.65873-20.24118V-60.21645"/>
<path transform="matrix(0,1,1,0,374.7907,80.45744)" d="M3.58653 0C2.52383 .19925 .797 .797-.3985 1.49438V-1.49438C.797-.797 2.52383-.19925 3.58653 0"/>
<text xml:space="preserve" transform="matrix(1 0 -0 1 0 210.561)" font-size="9.9626" font-family="CMMI10" font-style="italic"><tspan y="-145.766" x="349.081">f</tspan></text>
<text xml:space="preserve" transform="matrix(1 0 -0 1 0 210.561)" font-size="6.9738" font-family="CMMI7" font-style="italic"><tspan y="-144.272" x="353.958 358.35847 360.72257 363.73527 366.09938">k,t,h</tspan></text>
<path transform="matrix(1,0,0,-1,9.132,20.240998)" stroke-width=".3985" stroke-linecap="butt" stroke-miterlimit="10" stroke-linejoin="miter" fill="none" stroke="#000000" d="M134.85424-85.04045C168.01758-85.04045 186.73136-85.04045 215.31188-85.04045"/>
<path transform="matrix(1,0,0,-1,224.44388,105.28145)" d="M3.58653 0C2.52383 .19925 .797 .797-.3985 1.49438V-1.49438C.797-.797 2.52383-.19925 3.58653 0"/>
<path transform="matrix(1,0,0,-1,9.132,20.240998)" stroke-width=".3985" stroke-linecap="butt" stroke-miterlimit="10" stroke-linejoin="miter" fill="none" stroke="#000000" d="M260.37709-85.04045C293.5404-85.04045 312.2542-85.04045 340.83473-85.04045"/>
<path transform="matrix(1,0,0,-1,349.9667,105.28145)" d="M3.58653 0C2.52383 .19925 .797 .797-.3985 1.49438V-1.49438C.797-.797 2.52383-.19925 3.58653 0"/>
<path transform="matrix(1,0,0,-1,9.132,20.240998)" stroke-width=".3985" stroke-linecap="butt" stroke-dasharray=".3985,1.99255" stroke-miterlimit="10" stroke-linejoin="miter" fill="none" stroke="#000000" d="M114.61304-105.28165V-145.2569"/>
<path transform="matrix(0,1,1,0,123.74504,165.4979)" d="M3.58653 0C2.52383 .19925 .797 .797-.3985 1.49438V-1.49438C.797-.797 2.52383-.19925 3.58653 0"/>
<text xml:space="preserve" transform="matrix(1 0 -0 1 -.0000076293949 210.561)" font-size="9.9626" font-family="CMMI10" font-style="italic"><tspan y="-62.041" x="94.997">g</tspan></text>
<text xml:space="preserve" transform="matrix(1 0 -0 1 -.0000076293949 210.561)" font-size="6.9738" font-family="CMMI7" font-style="italic"><tspan y="-60.547" x="99.748 104.14847 106.51259">k,t</tspan></text>
<text xml:space="preserve" transform="matrix(1 0 -0 1 -.0000076293949 210.561)" font-size="6.9738" font-family="CMSY7" font-style="italic"><tspan y="-60.547" x="109.528">&#x2212;</tspan></text>
<text xml:space="preserve" transform="matrix(1 0 -0 1 -.0000076293949 210.561)" font-size="6.9738" font-family="CMR7"><tspan y="-60.547" x="115.754">2</tspan></text>
<path transform="matrix(1,0,0,-1,9.132,20.240998)" stroke-width=".3985" stroke-linecap="butt" stroke-dasharray=".3985,1.99255" stroke-miterlimit="10" stroke-linejoin="miter" fill="none" stroke="#000000" d="M240.13588-105.28165V-145.2569"/>
<path transform="matrix(0,1,1,0,249.26789,165.4979)" d="M3.58653 0C2.52383 .19925 .797 .797-.3985 1.49438V-1.49438C.797-.797 2.52383-.19925 3.58653 0"/>
<text xml:space="preserve" transform="matrix(1 0 -0 1 0 210.561)" font-size="9.9626" font-family="CMMI10" font-style="italic"><tspan y="-62.041" x="220.518">g</tspan></text>
<text xml:space="preserve" transform="matrix(1 0 -0 1 0 210.561)" font-size="6.9738" font-family="CMMI7" font-style="italic"><tspan y="-60.547" x="225.27 229.67047 232.03459">k,t</tspan></text>
<text xml:space="preserve" transform="matrix(1 0 -0 1 0 210.561)" font-size="6.9738" font-family="CMSY7" font-style="italic"><tspan y="-60.547" x="235.04901">&#x2212;</tspan></text>
<text xml:space="preserve" transform="matrix(1 0 -0 1 0 210.561)" font-size="6.9738" font-family="CMR7"><tspan y="-60.547" x="241.27602">1</tspan></text>
<path transform="matrix(1,0,0,-1,9.132,20.240998)" stroke-width=".3985" stroke-linecap="butt" stroke-dasharray=".3985,1.99255" stroke-miterlimit="10" stroke-linejoin="miter" fill="none" stroke="#000000" d="M365.65873-105.28165V-145.2569"/>
<path transform="matrix(0,1,1,0,374.7907,165.4979)" d="M3.58653 0C2.52383 .19925 .797 .797-.3985 1.49438V-1.49438C.797-.797 2.52383-.19925 3.58653 0"/>
<text xml:space="preserve" transform="matrix(1 0 -0 1 0 210.561)" font-size="9.9626" font-family="CMMI10" font-style="italic"><tspan y="-62.041" x="356.237">g</tspan></text>
<text xml:space="preserve" transform="matrix(1 0 -0 1 0 210.561)" font-size="6.9738" font-family="CMMI7" font-style="italic"><tspan y="-60.547" x="360.989 365.38948 367.75358">k,t</tspan></text>
</svg>
